<?xml version="1.0" standalone="no"?><!DOCTYPE svg PUBLIC "-//W3C//DTD SVG 1.1//EN" "http://www.w3.org/Graphics/SVG/1.1/DTD/svg11.dtd"><svg width="1024" height="1024" viewBox="0 0 1024 1024" version="1.1" xmlns="http://www.w3.org/2000/svg" xmlns:xlink="http://www.w3.org/1999/xlink"><path d="M892.099924 64.567551 128.469953 64.567551c-35.146475 0-63.636343 28.489868-63.636343 63.636343l0 286.360983c0 35.143405 28.489868 63.636343 63.636343 63.636343l254.543324 0 0-63.636343L128.469953 414.564877 128.469953 128.20287l763.629971 0 0 286.360983-190.908004 0 0 63.636343 190.908004 0c35.146475 0 63.635319-28.492938 63.635319-63.636343L955.735244 128.20287C955.736267 93.057419 927.246399 64.567551 892.099924 64.567551zM764.828262 573.654198c-60.654428 0-127.271662 0-127.271662 0l0-190.908004c0 0-21.878287-97.442286-95.454002-95.457072-73.581856 1.991354-95.454002 95.457072-95.454002 95.457072l0 318.178643-63.636343-63.636343c0 0-73.581856-16.905018-127.271662 31.81766-53.695946 48.719608-31.81766 127.271662-31.81766 127.271662l190.908004 159.089321c5.478781-4.101411 29.247114 14.639418 48.137347-12.208043 18.893302-26.844392-16.319687-51.430346-16.319687-51.430346s-148.153248-116.332519-159.089321-127.268592c-22.870894-33.806967 42.753733-81.532945 63.636343-63.636343 9.940396 8.946766 159.089321 159.089321 159.089321 159.089321L510.284939 382.746194l63.635319 0c0 0 0 163.066913 0 190.908004 0 27.836999 26.844392 63.635319 58.663074 63.635319l121.305787 0c56.673767 0 106.393145 33.806967 106.393145 95.450932l0 159.089321c0 37.783535 63.636343 42.756803 63.636343 0 0-33.802874 0-24.856108 0-159.089321C923.917584 598.510306 825.479621 573.654198 764.828262 573.654198z" fill="#ffffff"></path></svg>